<svg xmlns="http://www.w3.org/2000/svg" xmlns:xlink="http://www.w3.org/1999/xlink" id="Layer_1" width="54" height="54" x="0" y="0" enable-background="new 0 0 54 54" version="1.1" viewBox="0 0 54 54" xml:space="preserve"><g><path fill="#FFF" fill-rule="evenodd" d="M27,0C12.1,0,0,12.1,0,27c0,14.9,12.1,27,27,27 c14.9,0,27-12.1,27-27C54,12.1,41.9,0,27,0z M27,52C13.2,52,2,40.8,2,27C2,13.2,13.2,2,27,2c13.8,0,25,11.2,25,25 C52,40.8,40.8,52,27,52z M40,15.4L38.6,14L27,25.6L15.2,13.8l-1.4,1.4L25.6,27L14,38.6l1.4,1.4L27,28.4l11.8,11.8l1.4-1.4L28.4,27 L40,15.4z" clip-rule="evenodd"/></g></svg>